<?xml version="1.0" standalone="no"?>
<!DOCTYPE svg PUBLIC "-//W3C//DTD SVG 20010904//EN"
 "http://www.w3.org/TR/2001/REC-SVG-20010904/DTD/svg10.dtd">
<svg version="1.0" xmlns="http://www.w3.org/2000/svg"
 width="284.000000pt" height="284.000000pt" viewBox="0 0 284.000000 284.000000"
 preserveAspectRatio="xMidYMid meet">
<metadata>
Created by potrace 1.11, written by Peter Selinger 2001-2013
</metadata>
<g transform="translate(0.000000,284.000000) scale(0.100000,-0.100000)"
fill="#000000" stroke="none">
<path d="M1398 2805 c-2 -2 -32 -5 -68 -9 -100 -9 -249 -60 -325 -111 -16 -11
-33 -20 -37 -20 -5 0 -21 -12 -37 -27 -16 -16 -34 -28 -39 -28 -5 0 -15 -13
-22 -30 -7 -16 -16 -27 -21 -24 -5 3 -14 -6 -21 -20 -6 -14 -18 -26 -25 -26
-10 0 -12 -7 -7 -22 11 -36 44 -52 44 -22 0 8 -4 12 -10 9 -5 -3 -10 -1 -10 4
0 6 16 17 35 25 20 9 35 22 35 31 0 33 130 123 247 170 38 15 77 31 88 36 54
22 188 31 267 18 80 -14 215 -70 297 -124 67 -44 141 -115 141 -135 0 -6 5
-10 10 -10 29 0 3 48 -64 115 -58 59 -90 82 -157 113 -71 33 -112 50 -139 57
-3 1 -16 5 -30 8 -28 8 -149 25 -152 22z"/>
<path d="M750 2465 c0 -9 -11 -28 -25 -43 -14 -15 -25 -34 -25 -42 0 -9 -6
-25 -14 -36 -42 -60 -94 -341 -73 -396 5 -13 10 -56 12 -96 3 -41 8 -79 13
-85 22 -28 55 -164 52 -212 -5 -78 -4 -175 4 -362 6 -160 8 -175 36 -235 16
-36 32 -92 36 -126 3 -34 11 -62 15 -62 5 0 9 -19 10 -42 0 -24 5 -58 12 -77
15 -43 37 -53 37 -17 0 14 5 26 10 26 6 0 10 -7 10 -15 0 -9 12 -20 28 -26 15
-6 29 -11 31 -12 2 -1 7 8 12 19 6 18 4 21 -12 17 -29 -8 -51 15 -44 48 3 15
1 30 -4 34 -7 3 -11 -2 -11 -14 0 -32 -15 -32 -29 1 -11 24 -12 38 -3 61 10
26 8 34 -14 62 -15 20 -22 39 -18 49 4 10 2 27 -4 39 -25 52 -44 137 -54 236
-5 58 -13 142 -18 186 -4 44 -6 125 -3 180 4 79 1 118 -16 183 -11 46 -24 89
-29 95 -20 24 -37 263 -20 273 4 3 5 11 2 19 -8 20 36 206 53 226 7 8 13 23
13 31 0 20 32 78 43 78 4 0 7 11 7 25 0 14 -4 25 -10 25 -5 0 -10 -7 -10 -15z"/>
<path d="M1930 2451 c0 -5 7 -14 15 -21 13 -10 15 -9 15 9 0 12 -6 21 -15 21
-8 0 -15 -4 -15 -9z"/>
<path d="M1995 2420 c3 -5 11 -10 16 -10 6 0 7 5 4 10 -3 6 -11 10 -16 10 -6
0 -7 -4 -4 -10z"/>
<path d="M2053 2334 c0 -16 13 -19 21 -5 3 5 0 11 -7 14 -8 3 -14 -1 -14 -9z"/>
<path d="M2084 2208 c4 -13 9 -36 12 -53 3 -16 13 -38 21 -50 14 -19 15 -19 9
10 -4 17 -9 47 -12 67 -4 20 -13 39 -21 43 -12 4 -14 0 -9 -17z"/>
<path d="M2123 2059 c4 -13 7 -32 7 -41 0 -9 7 -23 15 -31 18 -18 24 -143 8
-171 -6 -10 -8 -28 -5 -40 5 -18 3 -19 -10 -8 -12 10 -18 10 -24 1 -8 -14 -7
-261 2 -303 8 -39 -13 -301 -33 -401 -8 -44 -23 -96 -33 -115 -10 -19 -21 -50
-25 -67 -11 -54 23 -30 52 36 45 99 57 179 68 435 3 81 9 122 17 128 10 6 10
12 -1 30 -8 12 -16 53 -19 90 -4 54 0 80 18 127 28 77 42 89 75 67 24 -16 25
-20 21 -104 -1 -48 -8 -97 -14 -107 -5 -11 -11 -74 -12 -140 -3 -142 -2 -150
7 -141 10 10 13 31 19 141 3 55 9 127 14 160 5 33 10 89 11 124 2 59 0 66 -25
87 -22 19 -31 22 -47 14 -10 -6 -19 -7 -20 -3 -7 99 -41 245 -59 251 -9 3 -11
-2 -7 -19z"/>
<path d="M573 1768 c-16 -22 -13 -61 7 -103 11 -23 24 -65 30 -95 16 -83 22
-74 14 20 -4 59 -12 92 -25 109 -17 21 -17 26 -3 52 12 24 12 29 0 29 -7 0
-18 -6 -23 -12z"/>
<path d="M1650 1718 c-37 -25 -39 -45 -5 -41 11 2 63 4 115 5 92 3 96 2 133
-27 21 -17 45 -42 53 -57 15 -29 38 -36 50 -17 4 7 -1 16 -10 21 -9 5 -16 17
-16 27 0 29 -77 93 -108 90 -15 -2 -36 0 -47 3 -11 4 -45 9 -75 13 -48 5 -61
3 -90 -17z"/>
<path d="M1523 1723 c-27 -5 -30 -25 -7 -44 14 -11 18 -10 30 6 15 20 19 46 7
44 -5 -1 -18 -4 -30 -6z"/>
<path d="M920 1698 c-25 -11 -52 -24 -60 -28 -16 -7 -48 -86 -38 -95 11 -11
37 7 48 36 7 17 27 36 46 45 30 15 45 15 128 4 119 -17 135 -12 96 30 -25 27
-32 30 -51 20 -20 -11 -32 -11 -100 4 -13 3 -44 -4 -69 -16z"/>
<path d="M1177 1701 c-4 -17 -3 -21 5 -13 5 5 8 16 6 23 -3 8 -7 3 -11 -10z"/>
<path d="M2196 1686 c-20 -42 -20 -56 -2 -56 8 0 21 20 29 45 13 36 13 45 3
45 -8 0 -21 -15 -30 -34z"/>
<path d="M1235 1670 c-8 -13 3 -30 20 -30 11 0 25 20 25 36 0 9 -39 4 -45 -6z"/>
<path d="M1616 1593 c-15 -8 -27 -9 -31 -3 -5 8 -38 -7 -104 -49 -13 -8 -11
-16 10 -55 32 -61 53 -62 46 -1 -4 38 -1 48 16 60 27 19 38 19 31 1 -4 -9 6
-20 25 -30 35 -19 41 -19 41 -6 0 6 -7 10 -15 10 -21 0 -19 23 3 43 26 23 30
22 46 -18 11 -27 21 -35 40 -35 38 0 56 10 56 31 0 27 27 35 48 16 37 -33 83
-44 132 -31 l45 12 -39 1 c-22 1 -48 9 -58 18 -10 9 -36 23 -56 31 -50 19
-203 22 -236 5z m113 -30 c-8 -9 -16 -10 -22 -4 -13 13 0 31 19 24 11 -4 12
-8 3 -20z"/>
<path d="M1020 1590 c-55 -7 -124 -32 -134 -49 -4 -5 -20 -12 -36 -16 -38 -8
-39 -25 -1 -25 33 0 115 32 125 49 13 21 45 12 52 -14 3 -14 11 -25 18 -25 6
0 21 -3 33 -6 18 -5 25 -1 33 20 15 39 39 44 64 13 20 -24 22 -25 32 -9 10 15
16 15 43 5 31 -11 37 -8 23 13 -13 20 -46 32 -107 39 -33 4 -67 8 -75 9 -8 2
-40 0 -70 -4z m55 -20 c3 -6 -1 -13 -10 -16 -19 -8 -30 0 -20 15 8 14 22 14
30 1z"/>
<path d="M1127 1450 c-15 -16 -22 -30 -15 -30 12 0 98 48 98 55 0 3 -13 5 -28
5 -19 0 -38 -10 -55 -30z"/>
<path d="M1796 1439 c-27 -10 -53 -16 -58 -13 -5 3 -14 1 -21 -5 -8 -6 -18 -6
-27 -1 -8 6 -22 10 -30 10 -20 -1 61 -39 82 -40 22 0 93 27 133 52 l30 18 -30
-1 c-16 0 -52 -9 -79 -20z"/>
<path d="M920 1446 c0 -3 15 -15 33 -26 38 -24 122 -28 130 -6 4 10 -8 15 -51
19 -31 3 -69 9 -84 13 -16 3 -28 3 -28 0z"/>
<path d="M626 1308 c7 -74 10 -86 19 -76 9 9 -7 148 -17 148 -5 0 -6 -30 -2
-72z"/>
<path d="M1245 1280 c-9 -15 -1 -23 21 -18 15 3 16 4 1 16 -11 9 -17 10 -22 2z"/>
<path d="M1515 1269 c-4 -11 -12 -18 -19 -16 -22 9 -34 -6 -25 -30 9 -26 29
-31 29 -8 0 8 11 25 25 37 28 24 32 38 11 38 -8 0 -18 -9 -21 -21z"/>
<path d="M1591 1273 c41 -30 69 -44 69 -33 0 18 -44 50 -68 50 l-25 0 24 -17z"/>
<path d="M1162 1267 c-18 -6 -55 -35 -84 -66 -82 -90 -119 -159 -104 -197 9
-23 36 1 36 32 0 48 124 193 183 215 66 24 39 39 -31 16z"/>
<path d="M1632 1185 c-16 -25 -33 -37 -64 -45 -47 -12 -101 -34 -135 -55 -19
-13 -20 -18 -10 -40 7 -14 23 -28 37 -31 14 -3 41 -10 61 -16 41 -12 79 -3 79
18 0 17 -5 17 -32 3 -17 -9 -24 -8 -34 6 -8 10 -11 23 -8 29 3 6 -1 3 -10 -8
-9 -11 -22 -16 -31 -12 -20 7 -14 32 7 28 9 -1 18 4 21 12 3 8 26 18 51 21 32
5 47 13 51 26 4 11 17 27 31 35 23 16 32 48 16 58 -4 2 -17 -11 -30 -29z"/>
<path d="M1150 1196 c0 -8 5 -18 10 -21 6 -3 10 3 10 14 0 12 -4 21 -10 21 -5
0 -10 -6 -10 -14z"/>
<path d="M1710 1200 c0 -5 5 -10 12 -10 6 0 22 -10 35 -22 13 -12 23 -17 23
-12 0 10 -53 54 -65 54 -3 0 -5 -4 -5 -10z"/>
<path d="M1220 1136 c0 -8 6 -16 12 -18 10 -4 10 -10 1 -30 -11 -24 -9 -26 23
-36 19 -5 34 -6 34 -1 0 5 15 8 33 6 28 -2 38 -20 12 -23 -22 -2 -45 -17 -45
-29 0 -10 13 -13 46 -11 54 4 67 14 62 52 -2 23 -9 30 -36 35 -19 4 -39 12
-45 18 -16 16 -27 14 -27 -5 0 -8 -4 -13 -10 -9 -5 3 -6 13 -3 22 4 9 -1 21
-12 29 -24 18 -45 18 -45 0z"/>
<path d="M1800 1130 c0 -5 5 -10 11 -10 5 0 7 5 4 10 -3 6 -8 10 -11 10 -2 0
-4 -4 -4 -10z"/>
<path d="M1743 1053 c4 -24 3 -43 -2 -43 -5 0 -8 -8 -7 -17 1 -19 -32 -30
-101 -32 -24 0 -43 -6 -43 -11 0 -6 6 -10 13 -8 23 5 18 -13 -11 -42 -21 -21
-32 -26 -40 -18 -8 8 -15 8 -26 -1 -8 -7 -19 -10 -25 -7 -5 3 -21 -1 -37 -9
-17 -8 -33 -11 -43 -5 -8 4 -26 4 -39 -1 -16 -6 -29 -6 -37 1 -7 6 -19 8 -28
4 -8 -3 -18 0 -22 6 -5 8 -10 8 -20 0 -11 -9 -23 -4 -54 22 -47 38 -52 58 -14
58 55 0 13 11 -57 14 -77 4 -96 16 -78 49 11 21 5 33 -11 22 -6 -3 -11 -28
-11 -54 0 -47 0 -47 30 -43 23 3 38 -4 70 -30 37 -32 54 -43 132 -78 35 -16
173 -8 255 15 32 10 74 29 93 44 19 15 57 39 83 55 45 25 50 26 71 12 47 -30
56 -45 46 -72 -12 -30 -12 -34 -2 -34 4 0 15 19 26 41 14 30 15 44 7 52 -6 6
-11 30 -11 52 0 37 -21 75 -42 75 -16 0 -13 -50 5 -71 13 -16 15 -25 7 -27 -7
-3 -17 3 -22 12 -6 11 -17 15 -31 11 -20 -5 -20 -5 -5 7 19 16 14 61 -10 80
-14 12 -15 8 -9 -29z"/>
<path d="M1121 1031 c-6 -11 -11 -21 -11 -23 0 -2 36 -4 81 -6 58 -1 80 1 77
10 -2 6 -28 13 -58 15 -29 1 -59 8 -66 14 -9 8 -15 5 -23 -10z"/>
<path d="M1690 1036 c0 -8 7 -16 15 -20 9 -3 15 0 15 8 0 8 -7 16 -15 20 -9 3
-15 0 -15 -8z"/>
<path d="M1636 1025 c-9 -23 -8 -25 9 -25 17 0 19 9 6 28 -7 11 -10 10 -15 -3z"/>
<path d="M1942 995 c4 -4 3 -18 -2 -31 -5 -13 -5 -26 -1 -29 5 -2 12 6 15 20
9 36 9 39 -6 44 -7 2 -10 0 -6 -4z"/>
<path d="M1003 983 c-16 -6 -18 -143 -3 -143 6 0 10 9 10 21 0 11 7 27 15 36
8 8 13 18 11 22 -3 4 -7 20 -10 35 -6 33 -7 35 -23 29z"/>
<path d="M1378 963 c-28 -2 -48 -10 -52 -19 -6 -17 5 -19 21 -3 17 17 53 -7
53 -36 0 -14 4 -25 9 -25 6 0 9 12 8 28 -2 25 1 27 43 30 25 2 58 3 73 3 16 0
27 4 25 11 -4 11 -103 17 -180 11z"/>
<path d="M1265 950 c3 -5 8 -10 11 -10 2 0 4 5 4 10 0 6 -5 10 -11 10 -5 0 -7
-4 -4 -10z"/>
<path d="M1054 908 c-8 -13 -7 -105 2 -155 4 -21 2 -33 -5 -33 -6 0 -11 7 -11
16 0 8 -4 13 -9 10 -13 -8 10 -66 26 -66 7 0 14 10 14 23 1 12 3 38 4 57 1 20
7 46 14 58 19 36 -15 123 -35 90z"/>
<path d="M1764 883 c-4 -15 -2 -33 5 -42 6 -9 19 -28 29 -44 9 -15 23 -25 30
-22 11 4 13 -6 12 -42 -4 -68 -1 -83 11 -83 7 0 8 16 3 45 -4 29 -2 50 5 59 9
11 4 19 -23 41 -27 22 -37 38 -42 71 -7 50 -20 57 -30 17z"/>
<path d="M2010 815 c-28 -30 -36 -78 -15 -95 8 -7 15 -21 15 -31 0 -11 6 -19
13 -19 24 0 68 -57 78 -98 8 -36 -2 -137 -16 -150 -2 -2 -15 8 -29 22 -34 37
-39 20 -11 -39 20 -41 22 -58 15 -93 -6 -36 -5 -41 5 -30 17 18 35 75 35 109
0 15 4 30 9 33 5 3 14 29 21 56 18 75 1 135 -52 181 -37 32 -41 41 -44 86 -2
38 1 53 11 57 19 7 20 36 2 36 -8 0 -24 -11 -37 -25z"/>
<path d="M890 790 c0 -5 5 -10 11 -10 5 0 7 5 4 10 -3 6 -8 10 -11 10 -2 0 -4
-4 -4 -10z"/>
<path d="M2066 781 c-4 -5 12 -27 35 -48 57 -54 88 -110 103 -190 7 -37 16
-66 22 -63 12 6 10 21 -11 100 -20 77 -39 112 -82 160 -18 19 -33 38 -33 43 0
10 -28 9 -34 -2z"/>
<path d="M701 706 c-11 -30 -23 -76 -27 -103 -11 -88 -28 -103 -184 -163 -30
-12 -62 -27 -70 -34 -18 -15 -68 -38 -200 -92 -52 -21 -98 -42 -101 -47 -4 -5
-11 -7 -17 -3 -5 3 -12 -1 -15 -9 -4 -8 -24 -23 -47 -35 -27 -14 -40 -27 -40
-41 0 -18 27 -6 213 89 116 60 237 122 267 139 31 17 70 34 87 37 17 4 37 13
43 21 6 8 24 17 40 20 22 5 30 14 35 38 4 18 15 57 25 87 23 72 34 150 21 150
-5 0 -19 -24 -30 -54z"/>
<path d="M915 750 c4 -6 11 -8 16 -5 14 9 11 15 -7 15 -8 0 -12 -5 -9 -10z"/>
<path d="M955 730 c-7 -12 2 -30 16 -30 12 0 12 27 0 35 -5 3 -12 1 -16 -5z"/>
<path d="M1491 721 c-7 -5 -22 -6 -32 -4 -34 9 -23 -33 13 -51 38 -20 38 -20
38 -1 0 8 -5 15 -11 15 -5 0 -7 5 -4 11 4 6 23 9 43 7 28 -2 37 1 40 15 3 14
-4 17 -35 17 -21 0 -44 -4 -52 -9z"/>
<path d="M1355 710 c-4 -6 0 -19 9 -29 9 -10 16 -27 16 -39 0 -12 5 -22 10
-22 16 0 24 31 11 40 -7 4 -11 18 -9 31 3 25 -24 40 -37 19z"/>
<path d="M1590 713 c0 -5 4 -15 10 -23 11 -18 25 -7 17 15 -6 15 -27 21 -27 8z"/>
<path d="M1762 703 c2 -10 11 -19 21 -21 23 -5 21 10 -4 26 -18 12 -20 11 -17
-5z"/>
<path d="M900 689 c0 -5 5 -7 10 -4 6 3 10 8 10 11 0 2 -4 4 -10 4 -5 0 -10
-5 -10 -11z"/>
<path d="M1960 686 c0 -9 5 -16 10 -16 6 0 10 4 10 9 0 6 -4 13 -10 16 -5 3
-10 -1 -10 -9z"/>
<path d="M965 677 c-4 -10 -5 -21 -1 -24 10 -10 18 4 13 24 -4 17 -4 17 -12 0z"/>
<path d="M1090 675 c0 -17 2 -18 24 -9 23 9 20 24 -4 24 -11 0 -20 -7 -20 -15z"/>
<path d="M1285 666 c-19 -14 -19 -15 -2 -22 22 -8 30 -1 25 21 -3 14 -5 14
-23 1z"/>
<path d="M995 623 c-16 -38 -12 -73 8 -73 8 0 13 21 14 55 1 30 0 55 -2 55 -3
0 -12 -16 -20 -37z"/>
<path d="M1916 651 c-4 -7 -5 -15 -2 -18 9 -9 19 4 14 18 -4 11 -6 11 -12 0z"/>
<path d="M1056 641 c-4 -7 -5 -15 -2 -18 9 -9 19 4 14 18 -4 11 -6 11 -12 0z"/>
<path d="M1325 641 c-3 -5 -1 -12 5 -16 5 -3 10 1 10 9 0 18 -6 21 -15 7z"/>
<path d="M1585 630 c10 -11 22 -17 28 -13 5 3 16 -2 24 -12 7 -11 13 -14 13
-8 0 14 -53 53 -71 53 -8 0 -6 -7 6 -20z"/>
<path d="M1760 645 c0 -8 34 -45 42 -45 16 0 7 30 -11 40 -21 11 -31 13 -31 5z"/>
<path d="M1680 631 c0 -6 5 -13 10 -16 6 -3 10 1 10 9 0 9 -4 16 -10 16 -5 0
-10 -4 -10 -9z"/>
<path d="M1840 619 c0 -14 7 -34 15 -45 14 -18 14 -16 9 16 -8 44 -24 63 -24
29z"/>
<path d="M1280 616 c0 -9 5 -16 10 -16 6 0 10 4 10 9 0 6 -4 13 -10 16 -5 3
-10 -1 -10 -9z"/>
<path d="M1430 615 c7 -8 16 -15 21 -15 5 0 9 7 9 15 0 9 -9 15 -21 15 -18 0
-19 -2 -9 -15z"/>
<path d="M1331 591 c-10 -17 -9 -21 3 -21 20 0 31 19 18 32 -7 7 -14 3 -21
-11z"/>
<path d="M1961 584 c-17 -17 -21 -28 -14 -35 13 -13 53 22 53 46 0 21 -12 18
-39 -11z"/>
<path d="M922 559 c-12 -37 -11 -46 9 -88 13 -25 49 -83 81 -129 62 -88 98
-150 98 -168 0 -33 149 -134 197 -134 25 0 -2 25 -50 48 -74 35 -147 133 -134
182 3 11 1 23 -4 26 -5 3 -9 0 -9 -5 0 -6 -5 -11 -11 -11 -15 0 -52 88 -42
103 4 6 9 32 10 57 0 25 4 59 8 75 4 17 5 27 1 24 -4 -4 -9 -17 -11 -30 -3
-13 -12 -29 -20 -35 -17 -13 -20 -34 -5 -34 6 0 4 -13 -5 -30 -18 -34 -35 -31
-35 6 0 15 -6 24 -15 24 -9 0 -15 9 -15 24 0 13 -7 27 -16 30 -9 4 -12 11 -7
18 11 19 10 88 -2 88 -6 0 -16 -18 -23 -41z"/>
<path d="M1740 585 c0 -12 24 -55 32 -55 11 0 10 17 -2 41 -9 17 -30 27 -30
14z"/>
<path d="M1035 570 c-3 -6 1 -7 9 -4 18 7 21 14 7 14 -6 0 -13 -4 -16 -10z"/>
<path d="M1230 571 c0 -5 -3 -18 -7 -28 -6 -16 -5 -16 10 -4 19 15 23 41 7 41
-5 0 -10 -4 -10 -9z"/>
<path d="M1410 560 c0 -5 5 -10 11 -10 5 0 7 5 4 10 -3 6 -8 10 -11 10 -2 0
-4 -4 -4 -10z"/>
<path d="M1890 551 c0 -6 5 -13 11 -17 6 -3 9 -15 6 -25 -3 -10 -1 -21 4 -24
12 -8 -1 -35 -17 -35 -8 0 -17 -7 -20 -15 -4 -8 -10 -12 -15 -9 -5 3 -9 -10
-9 -29 0 -22 6 -37 15 -41 8 -3 16 0 16 7 1 7 2 17 4 22 1 6 3 15 3 22 1 6 12
13 24 15 32 4 43 69 16 100 -10 11 -18 25 -18 30 0 4 -4 8 -10 8 -5 0 -10 -4
-10 -9z"/>
<path d="M1149 535 c-8 -8 -20 -22 -26 -30 -17 -18 -16 -35 2 -35 8 0 22 16
30 37 17 40 14 53 -6 28z"/>
<path d="M1647 515 c-4 -8 -2 -17 3 -20 6 -4 10 3 10 14 0 25 -6 27 -13 6z"/>
<path d="M1003 513 c-21 -8 -15 -33 7 -33 13 0 20 7 20 20 0 20 -5 23 -27 13z"/>
<path d="M1292 501 c-19 -14 -22 -23 -16 -45 4 -18 2 -31 -6 -36 -9 -5 -9 -9
-1 -14 12 -8 31 32 31 63 0 9 5 22 12 29 19 19 4 22 -20 3z"/>
<path d="M1762 500 c0 -14 2 -19 5 -12 2 6 2 18 0 25 -3 6 -5 1 -5 -13z"/>
<path d="M1842 508 c6 -18 28 -21 28 -4 0 9 -7 16 -16 16 -9 0 -14 -5 -12 -12z"/>
<path d="M1410 496 c0 -9 5 -16 10 -16 6 0 10 4 10 9 0 6 -4 13 -10 16 -5 3
-10 -1 -10 -9z"/>
<path d="M1498 475 c2 -19 8 -35 13 -35 5 0 9 16 7 35 -1 19 -7 35 -13 35 -7
0 -9 -14 -7 -35z"/>
<path d="M1704 496 c-3 -8 -4 -23 -2 -33 3 -11 6 -6 9 15 6 34 2 42 -7 18z"/>
<path d="M1345 449 c-4 -6 -5 -13 -2 -16 7 -7 27 6 27 18 0 12 -17 12 -25 -2z"/>
<path d="M1454 452 c-6 -4 -13 -18 -17 -31 l-6 -23 20 21 c21 22 23 46 3 33z"/>
<path d="M1585 450 c-3 -5 1 -10 9 -10 9 0 16 5 16 10 0 6 -4 10 -9 10 -6 0
-13 -4 -16 -10z"/>
<path d="M646 418 c-9 -12 -16 -33 -16 -46 0 -13 -4 -21 -8 -18 -4 2 -8 -4 -9
-15 -2 -16 1 -15 22 7 23 24 42 80 32 90 -3 3 -12 -5 -21 -18z"/>
<path d="M1128 427 c-3 -7 -2 -23 2 -37 7 -26 10 -23 24 24 6 17 -21 30 -26
13z"/>
<path d="M1537 384 c-3 -16 -9 -37 -12 -46 -12 -31 12 -19 25 11 8 19 9 35 2
46 -8 15 -10 13 -15 -11z"/>
<path d="M1360 386 c-6 -8 -18 -12 -26 -9 -15 5 -29 -18 -22 -39 3 -8 11 -5
23 10 11 12 27 22 36 22 9 0 19 7 23 15 7 19 -18 20 -34 1z"/>
<path d="M1208 373 c-26 -7 -22 -23 6 -23 13 0 26 7 30 15 5 15 -3 17 -36 8z"/>
<path d="M1774 352 c-9 -23 -19 -30 -51 -35 -43 -7 -72 -30 -53 -42 6 -4 8
-15 5 -26 -8 -24 13 -26 22 -1 3 9 15 27 26 39 19 22 21 22 39 6 17 -15 20
-15 28 -3 11 17 11 34 1 68 -6 23 -6 23 -17 -6z"/>
<path d="M1426 353 c-6 -14 -5 -15 5 -6 7 7 10 15 7 18 -3 3 -9 -2 -12 -12z"/>
<path d="M1640 344 c0 -8 5 -12 10 -9 6 3 10 10 10 16 0 5 -4 9 -10 9 -5 0
-10 -7 -10 -16z"/>
<path d="M1085 340 c-3 -5 1 -10 9 -10 8 0 18 5 21 10 3 6 -1 10 -9 10 -8 0
-18 -4 -21 -10z"/>
<path d="M2345 320 c3 -5 8 -10 11 -10 2 0 4 5 4 10 0 6 -5 10 -11 10 -5 0 -7
-4 -4 -10z"/>
<path d="M1291 301 c-9 -6 -10 -11 -2 -15 13 -8 31 1 31 15 0 11 -11 11 -29 0z"/>
<path d="M2378 303 c7 -3 16 -2 19 1 4 3 -2 6 -13 5 -11 0 -14 -3 -6 -6z"/>
<path d="M1160 286 c0 -7 6 -19 14 -25 20 -17 31 5 12 24 -18 19 -26 19 -26 1z"/>
<path d="M1613 288 c-4 -7 -6 -23 -4 -35 2 -22 -6 -27 -35 -24 -15 2 -37 -26
-30 -38 4 -6 22 -3 46 6 32 13 39 20 38 42 -1 14 2 34 6 44 9 20 -9 24 -21 5z"/>
<path d="M1450 280 c-13 -8 -12 -10 3 -10 9 0 17 5 17 10 0 12 -1 12 -20 0z"/>
<path d="M1247 254 c3 -8 11 -14 19 -14 21 0 17 17 -5 23 -14 3 -18 1 -14 -9z"/>
<path d="M2263 235 c1 -19 5 -35 9 -35 4 0 8 16 8 35 0 19 -4 35 -9 35 -5 0
-9 -16 -8 -35z"/>
<path d="M2040 248 c0 -7 -3 -31 -7 -52 -5 -34 -4 -38 8 -27 16 16 24 91 9 91
-5 0 -10 -6 -10 -12z"/>
<path d="M1300 230 l-44 -5 27 -18 c20 -13 32 -15 41 -8 8 7 15 4 24 -10 17
-27 29 -24 29 10 0 34 -12 39 -77 31z"/>
<path d="M1485 230 c-4 -6 -21 -10 -40 -10 -44 0 -54 -17 -19 -32 23 -11 28
-10 40 6 10 15 17 16 27 8 15 -13 27 -6 27 14 0 15 -27 26 -35 14z"/>
<path d="M1175 220 c-3 -5 -1 -10 4 -10 6 0 11 5 11 10 0 6 -2 10 -4 10 -3 0
-8 -4 -11 -10z"/>
<path d="M1212 218 c6 -18 28 -21 28 -4 0 9 -7 16 -16 16 -9 0 -14 -5 -12 -12z"/>
<path d="M2010 111 c0 -14 5 -19 15 -14 17 6 15 25 -3 31 -7 2 -12 -5 -12 -17z"/>
<path d="M2125 100 c-4 -16 -11 -32 -16 -35 -23 -15 -4 -25 47 -25 l55 0 -32
45 c-18 25 -36 45 -40 45 -4 0 -10 -13 -14 -30z"/>
<path d="M1080 65 l-34 -25 41 0 c28 0 43 5 47 16 16 42 -5 45 -54 9z"/>
</g>
</svg>
